<svg width="77" height="34" viewBox="0 0 77 34" fill="none" xmlns="http://www.w3.org/2000/svg">
<path fill-rule="evenodd" clip-rule="evenodd" d="M55 28C56.1046 28 57 27.1046 57 26C57 24.8954 56.1046 24 55 24C53.8954 24 53 24.8954 53 26C53 27.1046 53.8954 28 55 28ZM55 30C57.2091 30 59 28.2091 59 26C59 23.7909 57.2091 22 55 22C52.7909 22 51 23.7909 51 26C51 28.2091 52.7909 30 55 30Z" fill="white"/>
<path fill-rule="evenodd" clip-rule="evenodd" d="M62 14C63.1046 14 64 13.1046 64 12C64 10.8954 63.1046 10 62 10C60.8954 10 60 10.8954 60 12C60 13.1046 60.8954 14 62 14ZM62 16C64.2091 16 66 14.2091 66 12C66 9.79086 64.2091 8 62 8C59.7909 8 58 9.79086 58 12C58 14.2091 59.7909 16 62 16Z" fill="white"/>
<path fill-rule="evenodd" clip-rule="evenodd" d="M48 14C49.1046 14 50 13.1046 50 12C50 10.8954 49.1046 10 48 10C46.8954 10 46 10.8954 46 12C46 13.1046 46.8954 14 48 14ZM48 16C50.2091 16 52 14.2091 52 12C52 9.79086 50.2091 8 48 8C45.7909 8 44 9.79086 44 12C44 14.2091 45.7909 16 48 16Z" fill="white"/>
<path fill-rule="evenodd" clip-rule="evenodd" d="M33 5C33 4.44772 33.4477 4 34 4H69C69.5523 4 70 4.44772 70 5C70 5.55228 69.5523 6 69 6H56V15C56 17.7614 53.7614 20 51 20H7.5C6.67157 20 6 20.6716 6 21.5C6 22.3284 6.67157 23 7.5 23H9.5C11.433 23 13 24.567 13 26.5C13 28.433 11.433 30 9.5 30H5C4.44772 30 4 29.5523 4 29C4 28.4477 4.44772 28 5 28H9.5C10.3284 28 11 27.3284 11 26.5C11 25.6716 10.3284 25 9.5 25H7.5C5.567 25 4 23.433 4 21.5C4 19.567 5.567 18 7.5 18H51C52.6569 18 54 16.6569 54 15V6H42V15C42 15.5523 41.5523 16 41 16C40.4477 16 40 15.5523 40 15V6H34C33.4477 6 33 5.55228 33 5Z" fill="white"/>
<path fill-rule="evenodd" clip-rule="evenodd" d="M16 22C16.5523 22 17 22.4477 17 23V25H19V23C19 22.4477 19.4477 22 20 22C20.5523 22 21 22.4477 21 23V29C21 29.5523 20.5523 30 20 30C19.4477 30 19 29.5523 19 29V27H17V29C17 29.5523 16.5523 30 16 30C15.4477 30 15 29.5523 15 29V23C15 22.4477 15.4477 22 16 22Z" fill="white"/>
<path fill-rule="evenodd" clip-rule="evenodd" d="M26 24C25.4477 24 25 24.4477 25 25V26H27V25C27 24.4477 26.5523 24 26 24ZM27 28V29C27 29.5523 27.4477 30 28 30C28.5523 30 29 29.5523 29 29V25C29 23.3431 27.6569 22 26 22C24.3431 22 23 23.3431 23 25V29C23 29.5523 23.4477 30 24 30C24.5523 30 25 29.5523 25 29V28H27Z" fill="white"/>
<path fill-rule="evenodd" clip-rule="evenodd" d="M34 24C33.4477 24 33 24.4477 33 25V29C33 29.5523 32.5523 30 32 30C31.4477 30 31 29.5523 31 29V25C31 23.3431 32.3431 22 34 22C34.7684 22 35.4692 22.2889 36 22.7639C36.5308 22.2889 37.2316 22 38 22C39.6569 22 41 23.3431 41 25V29C41 29.5523 40.5523 30 40 30C39.4477 30 39 29.5523 39 29V25C39 24.4477 38.5523 24 38 24C37.4477 24 37 24.4477 37 25V29C37 29.5523 36.5523 30 36 30C35.4477 30 35 29.5523 35 29V25C35 24.4477 34.5523 24 34 24Z" fill="white"/>
<path fill-rule="evenodd" clip-rule="evenodd" d="M43 23C43 22.4477 43.4477 22 44 22H46C47.6569 22 49 23.3431 49 25C49 26.6569 47.6569 28 46 28H45V29C45 29.5523 44.5523 30 44 30C43.4477 30 43 29.5523 43 29V23ZM45 26H46C46.5523 26 47 25.5523 47 25C47 24.4477 46.5523 24 46 24H45V26Z" fill="white"/>
<path fill-rule="evenodd" clip-rule="evenodd" d="M62 18C62.5523 18 63 18.4477 63 19V29C63 29.5523 62.5523 30 62 30C61.4477 30 61 29.5523 61 29V19C61 18.4477 61.4477 18 62 18Z" fill="white"/>
<path fill-rule="evenodd" clip-rule="evenodd" d="M65.6173 22.0761C65.991 21.9213 66.4211 22.0069 66.7071 22.2929L71 26.5858V23C71 22.4477 71.4477 22 72 22C72.5523 22 73 22.4477 73 23V29C73 29.4045 72.7564 29.7691 72.3827 29.9239C72.009 30.0787 71.5789 29.9931 71.2929 29.7071L67 25.4142V29C67 29.5523 66.5523 30 66 30C65.4477 30 65 29.5523 65 29V23C65 22.5955 65.2436 22.2309 65.6173 22.0761Z" fill="white"/>
</svg>
