<svg width="77" height="34" viewBox="0 0 77 34" fill="none" xmlns="http://www.w3.org/2000/svg">
<path fill-rule="evenodd" clip-rule="evenodd" d="M55 28C56.1046 28 57 27.1046 57 26C57 24.8954 56.1046 24 55 24C53.8954 24 53 24.8954 53 26C53 27.1046 53.8954 28 55 28ZM55 30C57.2091 30 59 28.2091 59 26C59 23.7909 57.2091 22 55 22C52.7909 22 51 23.7909 51 26C51 28.2091 52.7909 30 55 30Z" fill="#550000"/>
<path fill-rule="evenodd" clip-rule="evenodd" d="M62 14C63.1046 14 64 13.1046 64 12C64 10.8954 63.1046 10 62 10C60.8954 10 60 10.8954 60 12C60 13.1046 60.8954 14 62 14ZM62 16C64.2091 16 66 14.2091 66 12C66 9.79086 64.2091 8 62 8C59.7909 8 58 9.79086 58 12C58 14.2091 59.7909 16 62 16Z" fill="#550000"/>
<path fill-rule="evenodd" clip-rule="evenodd" d="M48 14C49.1046 14 50 13.1046 50 12C50 10.8954 49.1046 10 48 10C46.8954 10 46 10.8954 46 12C46 13.1046 46.8954 14 48 14ZM48 16C50.2091 16 52 14.2091 52 12C52 9.79086 50.2091 8 48 8C45.7909 8 44 9.79086 44 12C44 14.2091 45.7909 16 48 16Z" fill="#550000"/>
<path fill-rule="evenodd" clip-rule="evenodd" d="M33 5C33 4.44772 33.4477 4 34 4H69C69.5523 4 70 4.44772 70 5C70 5.55228 69.5523 6 69 6H56V15C56 17.7614 53.7614 20 51 20H7.5C6.67157 20 6 20.6716 6 21.5C6 22.3284 6.67157 23 7.5 23H9.5C11.433 23 13 24.567 13 26.5C13 28.433 11.433 30 9.5 30H5C4.44772 30 4 29.5523 4 29C4 28.4477 4.44772 28 5 28H9.5C10.3284 28 11 27.3284 11 26.5C11 25.6716 10.3284 25 9.5 25H7.5C5.567 25 4 23.433 4 21.5C4 19.567 5.567 18 7.5 18H51C52.6569 18 54 16.6569 54 15V6H42V15C42 15.5523 41.5523 16 41 16C40.4477 16 40 15.5523 40 15V6H34C33.4477 6 33 5.55228 33 5Z" fill="#550000"/>
<path fill-rule="evenodd" clip-rule="evenodd" d="M16 22C16.5523 22 17 22.4477 17 23V25H19V23C19 22.4477 19.4477 22 20 22C20.5523 22 21 22.4477 21 23V29C21 29.5523 20.5523 30 20 30C19.4477 30 19 29.5523 19 29V27H17V29C17 29.5523 16.5523 30 16 30C15.4477 30 15 29.5523 15 29V23C15 22.4477 15.4477 22 16 22Z" fill="#550000"/>
<path fill-rule="evenodd" clip-rule="evenodd" d="M26 24C25.4477 24 25 24.4477 25 25V26H27V25C27 24.4477 26.5523 24 26 24ZM27 28V29C27 29.5523 27.4477 30 28 30C28.5523 30 29 29.5523 29 29V25C29 23.3431 27.6569 22 26 22C24.3431 22 23 23.3431 23 25V29C23 29.5523 23.4477 30 24 30C24.5523 30 25 29.5523 25 29V28H27Z" fill="#550000"/>
<path fill-rule="evenodd" clip-rule="evenodd" d="M34 24C33.4477 24 33 24.4477 33 25V29C33 29.5523 32.5523 30 32 30C31.4477 30 31 29.5523 31 29V25C31 23.3431 32.3431 22 34 22C34.7684 22 35.4692 22.2889 36 22.7639C36.5308 22.2889 37.2316 22 38 22C39.6569 22 41 23.3431 41 25V29C41 29.5523 40.5523 30 40 30C39.4477 30 39 29.5523 39 29V25C39 24.4477 38.5523 24 38 24C37.4477 24 37 24.4477 37 25V29C37 29.5523 36.5523 30 36 30C35.4477 30 35 29.5523 35 29V25C35 24.4477 34.5523 24 34 24Z" fill="#550000"/>
<path fill-rule="evenodd" clip-rule="evenodd" d="M43 23C43 22.4477 43.4477 22 44 22H46C47.6569 22 49 23.3431 49 25C49 26.6569 47.6569 28 46 28H45V29C45 29.5523 44.5523 30 44 30C43.4477 30 43 29.5523 43 29V23ZM45 26H46C46.5523 26 47 25.5523 47 25C47 24.4477 46.5523 24 46 24H45V26Z" fill="#550000"/>
<path fill-rule="evenodd" clip-rule="evenodd" d="M62 18C62.5523 18 63 18.4477 63 19V29C63 29.5523 62.5523 30 62 30C61.4477 30 61 29.5523 61 29V19C61 18.4477 61.4477 18 62 18Z" fill="#550000"/>
<path fill-rule="evenodd" clip-rule="evenodd" d="M65.6173 22.0761C65.991 21.9213 66.4211 22.0069 66.7071 22.2929L71 26.5858V23C71 22.4477 71.4477 22 72 22C72.5523 22 73 22.4477 73 23V29C73 29.4045 72.7564 29.7691 72.3827 29.9239C72.009 30.0787 71.5789 29.9931 71.2929 29.7071L67 25.4142V29C67 29.5523 66.5523 30 66 30C65.4477 30 65 29.5523 65 29V23C65 22.5955 65.2436 22.2309 65.6173 22.0761Z" fill="#550000"/>
<path d="M34 4C33.4477 4 33 4.44772 33 5C33 5.33999 33.1697 5.64036 33.429 5.82103C33.3162 5.65913 33.25 5.46229 33.25 5.25C33.25 4.69772 33.6977 4.25 34.25 4.25H69.25C69.4623 4.25 69.6591 4.31615 69.821 4.42897C69.6404 4.16967 69.34 4 69 4H34Z" fill="#AA0000"/>
<path d="M6.57169 22.6783C6.84637 23.0265 7.27209 23.25 7.75 23.25H9.75C10.6529 23.25 11.4759 23.5919 12.0967 24.1533C11.4563 23.445 10.5301 23 9.5 23H7.5C7.14949 23 6.82705 22.8798 6.57169 22.6783Z" fill="#AA0000"/>
<path d="M4.42897 29.821C4.31615 29.6591 4.25 29.4623 4.25 29.25C4.25 28.6977 4.69772 28.25 5.25 28.25H9.75C10.5784 28.25 11.25 27.5784 11.25 26.75C11.25 26.2721 11.0265 25.8464 10.6783 25.5717C10.8798 25.8271 11 26.1495 11 26.5C11 27.3284 10.3284 28 9.5 28H5C4.44772 28 4 28.4477 4 29C4 29.34 4.16967 29.6404 4.42897 29.821Z" fill="#AA0000"/>
<path d="M5.15327 24.0967C4.59189 23.4759 4.25 22.6529 4.25 21.75C4.25 19.817 5.817 18.25 7.75 18.25H51.25C52.9069 18.25 54.25 16.9069 54.25 15.25V6.25L54 6V15C54 16.6569 52.6569 18 51 18H7.5C5.567 18 4 19.567 4 21.5C4 22.5301 4.44501 23.4563 5.15327 24.0967Z" fill="#AA0000"/>
<path d="M40.429 15.821C40.3162 15.6591 40.25 15.4623 40.25 15.25V6.25L40 6V15C40 15.34 40.1697 15.6404 40.429 15.821Z" fill="#AA0000"/>
<path d="M48 14C49.1046 14 50 13.1046 50 12C50 11.5114 49.8248 11.0637 49.5337 10.7163C49.9716 11.0832 50.25 11.6341 50.25 12.25C50.25 13.3546 49.3546 14.25 48.25 14.25C47.6341 14.25 47.0832 13.9716 46.7163 13.5337C47.0637 13.8248 47.5114 14 48 14Z" fill="#AA0000"/>
<path d="M50.9507 9.29932C50.2391 8.64764 49.291 8.25 48.25 8.25C46.0409 8.25 44.25 10.0409 44.25 12.25C44.25 13.291 44.6476 14.2391 45.2993 14.9507C44.5008 14.2194 44 13.1682 44 12C44 9.79086 45.7909 8 48 8C49.1682 8 50.2194 8.50076 50.9507 9.29932Z" fill="#AA0000"/>
<path d="M64 12C64 13.1046 63.1046 14 62 14C61.5114 14 61.0637 13.8248 60.7163 13.5337C61.0832 13.9716 61.6341 14.25 62.25 14.25C63.3546 14.25 64.25 13.3546 64.25 12.25C64.25 11.6341 63.9716 11.0832 63.5337 10.7163C63.8248 11.0637 64 11.5114 64 12Z" fill="#AA0000"/>
<path d="M59.2993 14.9507C58.6476 14.2391 58.25 13.291 58.25 12.25C58.25 10.0409 60.0409 8.25 62.25 8.25C63.291 8.25 64.2391 8.64764 64.9507 9.29932C64.2194 8.50076 63.1682 8 62 8C59.7909 8 58 9.79086 58 12C58 13.1682 58.5008 14.2194 59.2993 14.9507Z" fill="#AA0000"/>
<path d="M57 26C57 27.1046 56.1046 28 55 28C54.5114 28 54.0637 27.8248 53.7163 27.5337C54.0832 27.9716 54.6341 28.25 55.25 28.25C56.3546 28.25 57.25 27.3546 57.25 26.25C57.25 25.6341 56.9716 25.0832 56.5337 24.7163C56.8248 25.0637 57 25.5114 57 26Z" fill="#AA0000"/>
<path d="M52.2993 28.9507C51.6476 28.2391 51.25 27.291 51.25 26.25C51.25 24.0409 53.0409 22.25 55.25 22.25C56.291 22.25 57.2391 22.6476 57.9507 23.2993C57.2194 22.5008 56.1682 22 55 22C52.7909 22 51 23.7909 51 26C51 27.1682 51.5008 28.2194 52.2993 28.9507Z" fill="#AA0000"/>
<path d="M17 25L17.25 25.25H19.25V23.25C19.25 22.6977 19.6977 22.25 20.25 22.25C20.4623 22.25 20.6591 22.3162 20.821 22.429C20.6404 22.1697 20.34 22 20 22C19.4477 22 19 22.4477 19 23V25H17Z" fill="#AA0000"/>
<path d="M19.429 29.821C19.3162 29.6591 19.25 29.4623 19.25 29.25V27.25L19 27V29C19 29.34 19.1697 29.6404 19.429 29.821Z" fill="#AA0000"/>
<path d="M15.429 29.821C15.1697 29.6404 15 29.34 15 29V23C15 22.4477 15.4477 22 16 22C16.34 22 16.6404 22.1697 16.821 22.429C16.6591 22.3162 16.4623 22.25 16.25 22.25C15.6977 22.25 15.25 22.6977 15.25 23.25V29.25C15.25 29.4623 15.3162 29.6591 15.429 29.821Z" fill="#AA0000"/>
<path d="M25 26H27V25C27 24.7877 26.9338 24.5909 26.821 24.429C27.0803 24.6096 27.25 24.91 27.25 25.25V26.25H25.25L25 26Z" fill="#AA0000"/>
<path d="M23.429 29.821C23.3162 29.6591 23.25 29.4623 23.25 29.25V25.25C23.25 23.5931 24.5931 22.25 26.25 22.25C27.0148 22.25 27.7128 22.5362 28.2427 23.0073C27.6931 22.3893 26.892 22 26 22C24.3431 22 23 23.3431 23 25V29C23 29.34 23.1697 29.6404 23.429 29.821Z" fill="#AA0000"/>
<path d="M27 28V29C27 29.34 27.1697 29.6404 27.429 29.821C27.3162 29.6591 27.25 29.4623 27.25 29.25V28.25L27 28Z" fill="#AA0000"/>
<path d="M31.429 29.821C31.3162 29.6591 31.25 29.4623 31.25 29.25V25.25C31.25 23.5931 32.5931 22.25 34.25 22.25C35.0184 22.25 35.7192 22.5389 36.25 23.0139C36.7808 22.5389 37.4816 22.25 38.25 22.25C39.0148 22.25 39.7128 22.5362 40.2427 23.0073C39.6931 22.3893 38.892 22 38 22C37.2316 22 36.5308 22.2889 36 22.7639C35.4692 22.2889 34.7684 22 34 22C32.3431 22 31 23.3431 31 25V29C31 29.34 31.1697 29.6404 31.429 29.821Z" fill="#AA0000"/>
<path d="M34.821 24.429C34.9338 24.5909 35 24.7877 35 25V29C35 29.34 35.1697 29.6404 35.429 29.821C35.3162 29.6591 35.25 29.4623 35.25 29.25V25.25C35.25 24.91 35.0803 24.6096 34.821 24.429Z" fill="#AA0000"/>
<path d="M38.821 24.429C38.9339 24.5909 39 24.7877 39 25V29C39 29.34 39.1697 29.6404 39.429 29.821C39.3162 29.6591 39.25 29.4623 39.25 29.25V25.25C39.25 24.91 39.0803 24.6097 38.821 24.429Z" fill="#AA0000"/>
<path d="M44 22C43.4477 22 43 22.4477 43 23V29C43 29.34 43.1697 29.6404 43.429 29.821C43.3162 29.6591 43.25 29.4623 43.25 29.25V23.25C43.25 22.6977 43.6977 22.25 44.25 22.25H46.25C47.0148 22.25 47.7128 22.5362 48.2427 23.0073C47.6931 22.3893 46.892 22 46 22H44Z" fill="#AA0000"/>
<path d="M45 26H46C46.5523 26 47 25.5523 47 25C47 24.7877 46.9339 24.5909 46.821 24.429C47.0803 24.6097 47.25 24.91 47.25 25.25C47.25 25.8023 46.8023 26.25 46.25 26.25H45.25L45 26Z" fill="#AA0000"/>
<path d="M61.429 29.821C61.3162 29.6591 61.25 29.4623 61.25 29.25V19.25C61.25 18.6977 61.6977 18.25 62.25 18.25C62.4623 18.25 62.6591 18.3162 62.821 18.429C62.6404 18.1697 62.34 18 62 18C61.4477 18 61 18.4477 61 19V29C61 29.34 61.1697 29.6404 61.429 29.821Z" fill="#AA0000"/>
<path d="M66.7071 22.2929C66.4211 22.0069 65.991 21.9213 65.6173 22.0761C65.2436 22.2309 65 22.5955 65 23V29C65 29.34 65.1697 29.6404 65.429 29.821C65.3162 29.6591 65.25 29.4623 65.25 29.25V23.25C65.25 22.8455 65.4936 22.4809 65.8673 22.3261C66.241 22.1713 66.6711 22.2569 66.9571 22.5429L66.7071 22.2929Z" fill="#AA0000"/>
<path d="M71 26.5858L71.25 26.8358V23.25C71.25 22.6977 71.6977 22.25 72.25 22.25C72.4623 22.25 72.6591 22.3162 72.821 22.429C72.6404 22.1697 72.34 22 72 22C71.4477 22 71 22.4477 71 23V26.5858Z" fill="#AA0000"/>
</svg>
